# xmcd
#
# Track frame offsets: 
#        150
#        9412
#        16312
#        24637
#        33937
#        42300
#        54375
#        63862
#        73612
#        84225
#        93937
#        102975
#        112275
#        120937
#        129862
#        139575
#        147600
#        158025
#        168300
#        177825
#        186712
#        196050
#        204075
#        212025
#        221400
#
# Disc length: 3076 seconds
#
# Revision: 0
# Processed by: cddbd v1.5.2PL0 Copyright (c) Steve Scherf et al.
# Submitted via: ExactAudioCopy v1.0b3
#
DISCID=540c0219
DTITLE=Various Artist - えいごであそぼ 100曲ベスト 14995-2007／DISC1 BINGO
DYEAR=2008
DGENRE=
TTITLE0=羽生未来 - Are You Sleeping?
TTITLE1=ケボ＆モッチ - A Salor Went To Sea
TTITLE2=ケボ＆モッチ - Bingo
TTITLE3=クリステル・チアリ - Come, Birds
TTITLE4=クリステル・チアリ - Cock-A-Doodle-Doo!
TTITLE5=フローレンス・ミノワ - Did You Ever See A Lassie?
TTITLE6=クリステル・チアリ - Dance, Thumbkin, Dance
TTITLE7=羽生未来 - Ensy Weensy Spider
TTITLE8=羽生未来 - Head, Shoulders, Knees And Toes
TTITLE9=クリステル・チアリ - Hickory, Dickory, Dock
TTITLE10=ジェリー伊藤 - Hot Cross Buns
TTITLE11=エミ＆ジーノ - How Do You Do?
TTITLE12=クリステル・チアリ／戸田ダリオ - Humpty Dumpty
TTITLE13=羽生未来 - Hokey Pokey
TTITLE14=ウォルター・ロバーツ - I Am A Music Man
TTITLE15=クリステル・チアリ - If You're Happy And You Know It
TTITLE16=クリステル・チアリ／戸田ダリオ - I've Been Working On The Railroad
TTITLE17=羽生未来 - John Brown's Baby
TTITLE18=羽生未来 - Kookaburra
TTITLE19=ブライアン・ベック - Lavender's Blue
TTITLE20=ウォルター・ロバーツ - Let Us Sing Together
TTITLE21=クリステル・チアリ - London Bridge
TTITLE22=クリステル・チアリ - Mary Had A Little Lamb
TTITLE23=ジェリー伊藤／羽生未来 - Old MacDonald Had A Farm
TTITLE24=ジェリー伊藤 - One Elephant Went Out To Play
EXTD=
EXTT0=
EXTT1=
EXTT2=
EXTT3=
EXTT4=
EXTT5=
EXTT6=
EXTT7=
EXTT8=
EXTT9=
EXTT10=
EXTT11=
EXTT12=
EXTT13=
EXTT14=
EXTT15=
EXTT16=
EXTT17=
EXTT18=
EXTT19=
EXTT20=
EXTT21=
EXTT22=
EXTT23=
EXTT24=
PLAYORDER=
